<?xml version="1.0" standalone="no"?><!DOCTYPE svg PUBLIC "-//W3C//DTD SVG 1.1//EN" "http://www.w3.org/Graphics/SVG/1.1/DTD/svg11.dtd"><svg class="icon" width="1024px" height="1024.00px" viewBox="0 0 1024 1024" version="1.1" xmlns="http://www.w3.org/2000/svg"><path fill="#ffffff" d="M303.469714 254.537143l-62.464 173.860571h126.464L305.517714 254.537143H303.542857z m400.822857-12.873143h-68.754285v284.16h67.657143c47.542857 0 82.358857-11.702857 104.374857-35.035429 21.650286-23.259429 32.548571-58.953143 32.548571-107.081142 0-48.786286-10.678857-84.626286-32.036571-107.593143-22.016-22.966857-56.612571-34.450286-103.862857-34.450286zM959.926857 0H64A64 64 0 0 0 0 64v640c0 35.328 28.672 64 64 64h896A64 64 0 0 0 1024 704V64A64 64 0 0 0 960 0zM419.913143 575.853714l-35.108572-99.035428H223.744l-35.108571 99.035428h-60.928l144.237714-384.292571h65.097143L481.28 575.853714h-61.366857z m431.250286-51.638857c-31.451429 34.377143-77.312 51.638857-137.508572 51.638857h-135.314286V191.561143h136.411429c60.123429 0 105.910857 17.408 137.435429 52.224 29.330286 32.256 44.032 78.994286 44.032 139.922286 0 59.977143-14.994286 106.788571-45.056 140.434285zM0 1024h1024v-128H0V1024z" /></svg>