<?xml version="1.0" standalone="no"?><!DOCTYPE svg PUBLIC "-//W3C//DTD SVG 1.1//EN" "http://www.w3.org/Graphics/SVG/1.1/DTD/svg11.dtd"><svg t="1542087261467" class="icon" style="" viewBox="0 0 1194 1024" version="1.1" xmlns="http://www.w3.org/2000/svg" p-id="2405" xmlns:xlink="http://www.w3.org/1999/xlink" width="1194" height="1024"><defs><style type="text/css"></style></defs><path d="M723.012267 712.942933a148.138667 148.138667 0 0 1-31.505067 47.274667 149.8112 149.8112 0 0 1-46.6944 31.505067 141.994667 141.994667 0 0 1-57.207467 11.6736 146.090667 146.090667 0 0 1-57.787733-11.6736 147.968 147.968 0 0 1-47.274667-31.505067 147.899733 147.899733 0 0 1-31.505066-47.274667 146.0224 146.0224 0 0 1-11.6736-57.787733c0-20.241067 3.8912-39.287467 11.6736-57.207467 7.7824-17.885867 18.295467-33.450667 31.505066-46.660266 13.243733-13.243733 29.013333-23.7568 47.274667-31.5392a146.090667 146.090667 0 0 1 57.787733-11.6736 141.994667 141.994667 0 0 1 57.207467 11.6736c17.885867 7.7824 33.450667 18.295467 46.6944 31.5392 13.2096 13.2096 23.722667 28.7744 31.505067 46.660266 7.7824 17.92 11.6736 36.9664 11.6736 57.207467s-3.8912 39.492267-11.6736 57.787733m370.619733 30.9248c-3.515733-16.349867-10.103467-34.235733-19.831467-53.691733a483.669333 483.669333 0 0 0-39.697066-64.170667 1111.688533 1111.688533 0 0 0-63.624534-79.394133c-20.241067-22.562133-39.867733-44.7488-58.948266-66.56-19.080533-21.777067-36.386133-41.642667-51.950934-59.528533a1796.096 1796.096 0 0 1-30.9248-34.338134c-13.994667-15.9744-34.133333-25.1904-55.3984-25.1904H410.0096c-20.002133 0-39.150933 8.192-53.0432 22.596267l-36.6592 38.126933c-17.134933 17.885867-36.386133 37.922133-57.787733 60.074667-21.4016 22.186667-42.222933 44.202667-62.464 65.979733a808.789333 808.789333 0 0 0-61.8496 70.621867 382.634667 382.634667 0 0 0-38.5024 60.1088 218.760533 218.760533 0 0 0-19.285334 53.691733 267.264 267.264 0 0 0-5.256533 53.691734v89.873066c0 22.596267 4.3008 42.8032 12.834133 60.7232 8.567467 17.885867 20.0704 33.245867 34.474667 46.08 14.370133 12.868267 31.095467 22.801067 50.176 29.7984a172.987733 172.987733 0 0 0 60.1088 10.478934h720.213333c19.456 0 37.922133-3.6864 55.432534-11.0592a145.6128 145.6128 0 0 0 46.6944-31.5392c13.653333-13.6192 24.337067-29.764267 32.085333-48.4352 7.816533-18.670933 11.707733-39.697067 11.707733-63.044267V792.917333c0-16.315733-1.774933-32.6656-5.256533-49.015466" p-id="2406" fill="#ffffff"></path><path d="M1172.411733 219.7504v73.557333c0 20.241067-7.168 37.341867-21.572266 51.370667-14.404267 13.994667-31.744 20.992-51.950934 20.992h-145.92a69.8368 69.8368 0 0 1-51.370666-20.992 69.8368 69.8368 0 0 1-20.992-51.370667c0-40.618667-32.938667-73.557333-73.557334-73.557333H369.322667c-40.618667 0-73.5232 32.938667-73.5232 73.557333 0 20.241067-6.997333 37.341867-21.026134 51.370667-13.994667 13.994667-31.1296 20.992-51.370666 20.992H77.5168c-20.241067 0-37.546667-6.997333-51.950933-20.992a68.9152 68.9152 0 0 1-21.6064-51.370667V217.429333c0-9.352533 2.3552-17.3056 6.997333-23.927466 4.676267-6.621867 10.513067-12.629333 17.5104-18.090667 7.031467-5.461333 14.813867-10.308267 23.3472-14.609067 7.953067-3.959467 15.872-8.430933 23.790933-13.380266 1.297067-0.8192 2.628267-1.570133 3.959467-2.321067 9.386667-5.085867 27.9552-15.018667 55.7056-29.7984 29.969067-15.9744 67.720533-32.494933 113.2544-49.629867 45.499733-17.1008 97.28-32.290133 155.2384-45.499733 57.9584-13.243733 119.637333-19.8656 185.002667-19.8656 74.717867 0 141.448533 6.621867 200.192 19.8656 58.743467 13.2096 109.738667 28.398933 152.917333 45.499733 43.2128 17.134933 77.824 33.655467 103.901867 49.629867 24.917333 15.223467 42.154667 25.326933 51.8144 30.242133a469.2992 469.2992 0 0 0 28.16 15.2576 139.946667 139.946667 0 0 1 23.313066 14.609067c7.031467 5.461333 12.629333 11.4688 16.930134 18.090667 4.266667 6.621867 6.417067 14.574933 6.417066 23.927466v2.321067z" p-id="2407" fill="#ffffff"></path></svg>