<?xml version="1.0" standalone="no"?><!DOCTYPE svg PUBLIC "-//W3C//DTD SVG 1.1//EN" "http://www.w3.org/Graphics/SVG/1.1/DTD/svg11.dtd"><svg class="icon" width="1024px" height="1024.00px" viewBox="0 0 1024 1024" version="1.1" xmlns="http://www.w3.org/2000/svg"><path fill="#ffffff" d="M641.422222 0 246.044444 0C186.311111 0 137.955556 48.355556 137.955556 108.088889l0 807.822222C137.955556 975.644444 186.311111 1024 246.044444 1024l531.911111 0c59.733333 0 108.088889-48.355556 108.088889-108.088889L886.044444 201.955556 641.422222 0 641.422222 0zM692.622222 759.466667 334.222222 759.466667c-5.688889 0-11.377778-5.688889-11.377778-11.377778l0-42.666667c0-5.688889 5.688889-11.377778 11.377778-11.377778l358.4 0c5.688889 0 11.377778 5.688889 11.377778 11.377778l0 42.666667C704 753.777778 698.311111 759.466667 692.622222 759.466667zM692.622222 557.511111 334.222222 557.511111c-5.688889 0-11.377778-5.688889-11.377778-11.377778l0-42.666667c0-5.688889 5.688889-11.377778 11.377778-11.377778l358.4 0c5.688889 0 11.377778 5.688889 11.377778 11.377778l0 42.666667C704 551.822222 698.311111 557.511111 692.622222 557.511111zM692.622222 358.4 334.222222 358.4c-5.688889 0-11.377778-5.688889-11.377778-11.377778l0-42.666667c0-5.688889 5.688889-11.377778 11.377778-11.377778l358.4 0c5.688889 0 11.377778 5.688889 11.377778 11.377778l0 42.666667C704 352.711111 698.311111 358.4 692.622222 358.4z" /></svg>