<?xml version="1.0" standalone="no"?><!DOCTYPE svg PUBLIC "-//W3C//DTD SVG 1.1//EN" "http://www.w3.org/Graphics/SVG/1.1/DTD/svg11.dtd"><svg t="1528459486325" class="icon" style="" viewBox="0 0 1024 1024" version="1.1" xmlns="http://www.w3.org/2000/svg" p-id="1480" xmlns:xlink="http://www.w3.org/1999/xlink" width="200" height="200"><defs><style type="text/css"></style></defs><path d="M414.72 772.096l32.3584 48.64c-150.6816 7.0144-264.192 38.0416-264.192 75.264 0 42.3936 147.3536 76.8 329.1136 76.8s329.1648-34.4064 329.1648-76.8c0-36.864-111.3088-67.6352-259.7888-75.1104l32.256-48.3328c162.7648 14.848 282.368 64.512 282.368 123.4432 0 70.656-171.9296 128-384 128C299.9296 1024 128 966.656 128 896c0-59.4944 121.7536-109.5168 286.72-123.904zM179.2 335.1552a335.104 335.104 0 1 1 670.208 0c0 68.7616-30.208 125.6448-68.096 185.9072L514.304 921.6 247.296 521.0112C204.8 460.8 179.2 403.8656 179.2 335.104z m332.8 125.6448a128 128 0 1 0 0-256 128 128 0 0 0 0 256z" p-id="1481" fill="#1296db"></path></svg>