<?xml version="1.0" standalone="no"?><!DOCTYPE svg PUBLIC "-//W3C//DTD SVG 1.1//EN" "http://www.w3.org/Graphics/SVG/1.1/DTD/svg11.dtd"><svg t="1528698700748" class="icon" style="" viewBox="0 0 1024 1024" version="1.1" xmlns="http://www.w3.org/2000/svg" p-id="2992" xmlns:xlink="http://www.w3.org/1999/xlink" width="200" height="200"><defs><style type="text/css"></style></defs><path d="M731.4 0 292.6 0c-40.4 0-73.1 32.7-73.1 73.1l0 877.7c0 40.4 32.7 73.1 73.1 73.1l438.8 0c40.4 0 73.1-32.7 73.1-73.1L804.5 73.1C804.6 32.7 771.8 0 731.4 0zM408 43.4l208 0c5.7 0 10.3 4.6 10.3 10.3 0 5.7-4.6 10.3-10.3 10.3L408 64c-5.7 0-10.3-4.6-10.3-10.3C397.7 48 402.3 43.4 408 43.4zM512 987.4c-20.2 0-36.6-16.4-36.6-36.6 0-20.2 16.4-36.6 36.6-36.6 20.2 0 36.6 16.4 36.6 36.6C548.6 971.1 532.2 987.4 512 987.4zM732.6 854.9c0 12.6-10.2 22.9-22.9 22.9L314.3 877.8c-12.6 0-22.9-10.2-22.9-22.9L291.4 131.4c0-12.6 10.2-22.9 22.9-22.9l395.4 0c12.6 0 22.9 10.2 22.9 22.9L732.6 854.9z" p-id="2993" fill="#515151"></path></svg>