<?xml version="1.0" standalone="no"?><!DOCTYPE svg PUBLIC "-//W3C//DTD SVG 1.1//EN" "http://www.w3.org/Graphics/SVG/1.1/DTD/svg11.dtd"><svg class="icon" width="1024px" height="1024.00px" viewBox="0 0 1024 1024" version="1.1" xmlns="http://www.w3.org/2000/svg"><path fill="#ffffff" d="M916.86311936 67.23717631H109.84864256c-22.2856704 0-40.35354624 18.06561792-40.35354623 40.35354625v605.2580352c0 22.28792832 18.06561792 40.35354624 40.35354623 40.35354623h383.32933632v161.40289537H213.5481344a20.1745152 20.1745152 0 0 0 0 40.34903041h599.61097728a20.17677312 20.17677312 0 0 0 0-40.34903041H533.52926719v-161.40289537h383.33385217c22.28115455 0 40.34903041-18.06561792 40.3490304-40.35354623V107.59072256c0-22.2856704-18.06787584-40.35354624-40.3490304-40.35354625z m-242.10321408 443.86191361H351.95185664a20.17903104 20.17903104 0 1 1 0-40.35354624h322.80579072a20.17677312 20.17677312 0 0 1 20.1745152 20.1745152c0 11.14509311-9.03167999 20.17903104-20.17225728 20.17903104z m40.34677248-161.40515328H311.60056831a20.17677312 20.17677312 0 0 1 0-40.35354624h403.50610945a20.17677312 20.17677312 0 0 1 20.17451521 20.1745152 20.17677312 20.17677312 0 0 1-20.17451521 20.17903104z m0 0" /></svg>