<?xml version="1.0" standalone="no"?><!DOCTYPE svg PUBLIC "-//W3C//DTD SVG 1.1//EN" "http://www.w3.org/Graphics/SVG/1.1/DTD/svg11.dtd"><svg t="1528698748040" class="icon" style="" viewBox="0 0 1024 1024" version="1.1" xmlns="http://www.w3.org/2000/svg" p-id="4063" xmlns:xlink="http://www.w3.org/1999/xlink" width="200" height="200"><defs><style type="text/css"></style></defs><path d="M515.63 84.772c42.768 0 82.978 16.663 113.22 46.92 30.245 30.259 46.902 70.492 46.902 113.286 0 20.661-5.523 42.404-16.416 64.626-10.157 20.721-24.851 41.246-42.491 59.355-33.878 34.777-75.257 57.249-105.418 57.249-29.018 0-68.382-22.32-100.286-56.863-16.655-18.033-30.528-38.546-40.12-59.321-10.294-22.297-15.514-44.182-15.514-65.046 0-42.794 16.657-83.027 46.902-113.286 30.243-30.257 70.452-46.92 113.221-46.92m0-20c-99.479 0-180.122 80.681-180.122 180.206s103.871 201.23 175.92 201.23c73.55 0 184.325-101.705 184.325-201.23S615.108 64.772 515.63 64.772z" p-id="4064" fill="#515151"></path><path d="M535.524 537.478l39.494-56.308H458.42l39.494 56.308zM497.914 552.838l-33.852 219.403 27.527 87.426h45.58l32.207-87.426-33.852-219.403z" p-id="4065" fill="#515151"></path><path d="M364 490.725l113.83 370.758 4.338 14.13h69.101l4.338-14.13 112.461-366.297a356.17 356.17 0 0 1 68.525 44.038 357.868 357.868 0 0 1 69.427 75.833c40.172 59.075 61.405 128.22 61.405 199.959 0 40.066-6.6 79.287-19.638 116.79H174.836c-13.037-37.503-19.638-76.723-19.638-116.79 0-73.467 22.185-143.989 64.157-203.944a357.835 357.835 0 0 1 72.338-76.379c22.355-17.537 46.602-32.276 72.307-43.968m12.642-26.968c-141.198 54.169-241.444 190.996-241.444 351.258 0 48.268 9.135 94.39 25.705 136.79h700.819c16.569-42.399 25.705-88.522 25.705-136.79 0-156.593-95.707-290.816-231.81-347.414L536.488 855.612h-39.539L376.642 463.757z" p-id="4066" fill="#515151"></path></svg>