<?xml version="1.0" standalone="no"?><!DOCTYPE svg PUBLIC "-//W3C//DTD SVG 1.1//EN" "http://www.w3.org/Graphics/SVG/1.1/DTD/svg11.dtd"><svg t="1564833727304" class="icon" viewBox="0 0 1024 1024" version="1.1" xmlns="http://www.w3.org/2000/svg" p-id="5869" xmlns:xlink="http://www.w3.org/1999/xlink" width="200" height="200"><defs><style type="text/css"></style></defs><path d="M768 51.2a764.928 764.928 0 0 0-256 44.544A764.928 764.928 0 0 0 256 51.2a764.928 764.928 0 0 0-256 44.544V972.8a764.928 764.928 0 0 1 256-44.544 764.928 764.928 0 0 1 256 44.544 756.224 756.224 0 0 1 512 0V95.744A764.928 764.928 0 0 0 768 51.2z m153.6 788.48a852.992 852.992 0 0 0-153.6-13.824 863.232 863.232 0 0 0-256 38.912V204.8l34.304-12.288A665.6 665.6 0 0 1 768 153.6a652.8 652.8 0 0 1 153.6 18.432z" p-id="5870" fill="#ffffff"></path></svg>